# xmcd
#
# Track frame offsets:
#	150
#	10147
#	20426
#	35382
#	45956
#	53985
#	65829
#	76104
#	90453
#	103179
#	114416
#	127691
#	140890
#	150736
#	159144
#	169173
#	179156
#	194560
#	203785
#	215381
#	232604
#	243593
#	254430
#	267749
#
# Disc length: 3704 seconds
#
# Revision: 1
# Processed by: cddbd v1.5.2PL0 Copyright (c) Steve Scherf et al.
# Submitted via: audiograbber 1.83.01
#
DISCID=490e7618
DTITLE=Dougie Trineer - 24 Country Guitar Selections
DYEAR=1970
DGENRE=Country
TTITLE0=Guitar Boogie
TTITLE1=Wildwood Flower
TTITLE2=Guitar Boogie Breakdown
TTITLE3=Country Gentleman
TTITLE4=Blue Smoke
TTITLE5=Frankie and Johnny
TTITLE6=Dream Queen
TTITLE7=Meet Mister Callahan
TTITLE8=Clarinet Polka
TTITLE9=Windy and Warm
TTITLE10=The Bells Of St. Mary's
TTITLE11=Tennessee Waltz
TTITLE12=Chromatic Boogie
TTITLE13=My Pretty Bluebells
TTITLE14=Finger Lickin'
TTITLE15=Day Dream
TTITLE16=Boogie Blues
TTITLE17=Gallopin' Guitar
TTITLE18=Fireball Mail
TTITLE19=Maria Elena
TTITLE20=Guitar Polka
TTITLE21=Buckaroo
TTITLE22=Sugarfoot Rag
TTITLE23=Trambone
EXTD=
EXTT0=
EXTT1=
EXTT2=
EXTT3=
EXTT4=
EXTT5=
EXTT6=
EXTT7=
EXTT8=
EXTT9=
EXTT10=
EXTT11=
EXTT12=
EXTT13=
EXTT14=
EXTT15=
EXTT16=
EXTT17=
EXTT18=
EXTT19=
EXTT20=
EXTT21=
EXTT22=
EXTT23=
PLAYORDER=
